<?xml version="1.0" encoding="UTF-8" standalone="no"?>
<!-- Created with Inkscape (http://www.inkscape.org/) -->

<svg
   xmlns:dc="http://purl.org/dc/elements/1.1/"
   xmlns:cc="http://creativecommons.org/ns#"
   xmlns:rdf="http://www.w3.org/1999/02/22-rdf-syntax-ns#"
   xmlns:svg="http://www.w3.org/2000/svg"
   xmlns="http://www.w3.org/2000/svg"
   xmlns:sodipodi="http://sodipodi.sourceforge.net/DTD/sodipodi-0.dtd"
   xmlns:inkscape="http://www.inkscape.org/namespaces/inkscape"
   version="1.1"
   id="svg2"
   xml:space="preserve"
   width="601"
   height="168"
   viewBox="0 0 601 168.00001"
   sodipodi:docname="logo.svg"
   inkscape:version="0.92.3 (2405546, 2018-03-11)"><metadata
     id="metadata8"><rdf:RDF><cc:Work
         rdf:about=""><dc:format>image/svg+xml</dc:format><dc:type
           rdf:resource="http://purl.org/dc/dcmitype/StillImage" /><dc:title></dc:title></cc:Work></rdf:RDF></metadata><defs
     id="defs6"><clipPath
       clipPathUnits="userSpaceOnUse"
       id="clipPath18"><path
         d="M 0,566.929 H 566.929 V 0 H 0 Z"
         id="path16"
         inkscape:connector-curvature="0" /></clipPath></defs><sodipodi:namedview
     pagecolor="#ffffff"
     bordercolor="#666666"
     borderopacity="1"
     objecttolerance="10"
     gridtolerance="10"
     guidetolerance="10"
     inkscape:pageopacity="0"
     inkscape:pageshadow="2"
     inkscape:window-width="1600"
     inkscape:window-height="847"
     id="namedview4"
     showgrid="false"
     units="px"
     width="600mm"
     inkscape:zoom="1.7661174"
     inkscape:cx="289.05038"
     inkscape:cy="103.26355"
     inkscape:window-x="-8"
     inkscape:window-y="-8"
     inkscape:window-maximized="1"
     inkscape:current-layer="g10" /><g
     id="g10"
     inkscape:groupmode="layer"
     inkscape:label="ENAESS LOGO"
     transform="matrix(1.3333333,0,0,-1.3333333,0,168.00008)"><g
       id="g12"
       transform="matrix(0.94285622,0,0,0.9428791,-51.434569,-222.63043)"><g
         id="g14"
         clip-path="url(#clipPath18)"><g
           id="g20"
           transform="translate(54.4834,263.9131)"><path
             d="m 0,0 c 0.871,8.967 1.507,16.474 1.908,22.521 0.401,6.047 0.801,14.084 1.202,24.111 0.401,10.027 0.601,16.674 0.601,19.941 l -0.052,4.588 c 8.2,-0.071 18.121,-0.105 29.763,-0.105 10.737,0 20.206,0.034 28.407,0.105 l -0.104,-1.715 c -0.036,-0.415 -0.122,-1.923 -0.261,-4.52 l -0.313,-5.664 c -0.07,-1.213 -0.104,-2.443 -0.104,-3.689 -6.708,0.278 -12.339,0.417 -16.891,0.417 -5.005,0 -8.385,-0.009 -10.14,-0.026 -1.755,-0.018 -4.492,-0.096 -8.21,-0.235 l -0.634,-11.99 c 4.103,-0.104 8.883,-0.156 14.34,-0.156 1.947,0 7.127,0.121 15.54,0.365 -0.348,-4.449 -0.678,-9.749 -0.99,-15.901 -6.01,0.069 -10.629,0.104 -13.859,0.104 -4.794,0 -10.16,-0.122 -16.1,-0.364 l -0.62,-12.669 h 5.991 c 1.771,0 5.436,0.053 10.993,0.156 l 10.785,0.261 c 1.597,0.034 4.271,0.174 8.022,0.417 C 58.857,10.809 58.51,5.491 58.232,0 49.751,0.069 40.455,0.104 30.341,0.104 L 7.403,0.052 Z"
             style="fill:#2fab48;fill-opacity:1;fill-rule:nonzero;stroke:none"
             id="path22"
             inkscape:connector-curvature="0" /></g><g
           id="g24"
           transform="translate(124.9658,263.9131)"><path
             d="m 0,0 1.043,10.948 2.033,37.118 0.573,14.962 v 8.133 c 5.396,-0.071 10.164,-0.105 14.308,-0.105 2.958,0 7.117,0.034 12.479,0.105 L 52.69,30.69 55.757,24.745 c 0.392,5.84 0.793,14.028 1.203,24.563 0.41,10.535 0.616,17.819 0.616,21.853 4.269,-0.071 7.69,-0.105 10.259,-0.105 1.18,0 4.582,0.034 10.207,0.105 L 76.791,55.625 74.445,12.46 74.132,0 C 69.611,0.069 65.385,0.104 61.455,0.104 58.186,0.104 53.665,0.069 47.892,0 46.087,3.406 44.75,5.875 43.883,7.406 L 35.136,22.27 c -2.881,4.867 -5.537,9.526 -7.966,13.977 -1.596,2.816 -3.245,5.91 -4.946,9.282 L 21.103,20.809 20.568,0 C 16.263,0.069 12.983,0.104 10.727,0.104 8.817,0.104 5.242,0.069 0,0"
             style="fill:#2fab48;fill-opacity:1;fill-rule:nonzero;stroke:none"
             id="path26"
             inkscape:connector-curvature="0" /></g><g
           id="g28"
           transform="translate(243.5791,299.311)"><path
             d="M 0,0 H 16.193 C 12.168,12.247 9.965,18.995 9.583,20.244 7.291,15.144 5.347,10.963 3.75,7.703 Z m -40.363,-35.398 4.33,7.507 26.966,50.777 2.869,5.682 c 0.834,1.669 1.999,4.067 3.494,7.195 6.116,-0.071 10.582,-0.105 13.397,-0.105 4.899,0 9.434,0.034 13.605,0.105 l 7.606,-21.74 15.474,-41.81 3.021,-7.611 c -6.019,0.069 -9.671,0.105 -10.959,0.105 -2.922,0 -7.219,-0.036 -12.89,-0.105 -1.527,5.734 -3.73,12.477 -6.61,20.228 H -6.302 c -3.022,-6.118 -6.147,-12.86 -9.376,-20.228 -6.472,0.069 -10.438,0.105 -11.898,0.105 -2.645,0 -6.907,-0.036 -12.787,-0.105"
             style="fill:#2fab48;fill-opacity:1;fill-rule:nonzero;stroke:none"
             id="path30"
             inkscape:connector-curvature="0" /></g><g
           id="g32"
           transform="translate(299.4004,263.9131)"><path
             d="m 0,0 c 0.871,8.967 1.507,16.474 1.907,22.521 0.402,6.047 0.802,14.084 1.203,24.111 0.401,10.027 0.601,16.674 0.601,19.941 l -0.052,4.588 c 8.2,-0.071 18.121,-0.105 29.763,-0.105 10.737,0 20.206,0.034 28.407,0.105 l -0.104,-1.715 c -0.036,-0.415 -0.122,-1.923 -0.261,-4.52 l -0.313,-5.664 c -0.07,-1.213 -0.104,-2.443 -0.104,-3.689 -6.708,0.278 -12.338,0.417 -16.891,0.417 -5.005,0 -8.385,-0.009 -10.139,-0.026 -1.756,-0.018 -4.493,-0.096 -8.211,-0.235 l -0.633,-11.99 c 4.101,-0.104 8.882,-0.156 14.339,-0.156 1.947,0 7.127,0.121 15.54,0.365 -0.348,-4.449 -0.678,-9.749 -0.99,-15.901 -6.01,0.069 -10.629,0.104 -13.859,0.104 -4.794,0 -10.16,-0.122 -16.1,-0.364 l -0.62,-12.669 h 5.992 c 1.77,0 5.435,0.053 10.992,0.156 l 10.785,0.261 c 1.597,0.034 4.271,0.174 8.022,0.417 C 58.857,10.809 58.51,5.491 58.231,0 49.751,0.069 40.455,0.104 30.341,0.104 L 7.402,0.052 Z"
             style="fill:#2fab48;fill-opacity:1;fill-rule:nonzero;stroke:none"
             id="path34"
             inkscape:connector-curvature="0" /></g><g
           id="g36"
           transform="translate(369.2061,265.0078)"><path
             d="m 0,0 c -0.452,7.403 -0.974,13.328 -1.564,17.777 3.899,-1.738 7.373,-2.945 10.418,-3.623 3.047,-0.677 5.72,-1.016 8.019,-1.016 3.028,0 5.439,0.442 7.233,1.329 1.793,0.886 2.69,2.197 2.69,3.936 0,0.59 -0.087,1.155 -0.262,1.694 -0.174,0.538 -0.505,1.147 -0.992,1.825 -0.487,0.678 -1.185,1.415 -2.089,2.215 l -9.822,8.55 c -2.299,1.946 -3.901,3.354 -4.806,4.223 -1.846,1.772 -3.283,3.423 -4.31,4.952 -1.028,1.529 -1.777,3.084 -2.246,4.666 -0.471,1.581 -0.706,3.259 -0.706,5.031 0,2.119 0.374,4.196 1.122,6.23 0.747,2.033 1.868,3.936 3.362,5.708 1.494,1.773 3.475,3.302 5.943,4.588 2.467,1.285 5.11,2.164 7.924,2.633 2.815,0.469 5.717,0.703 8.706,0.703 5.873,0 12.269,-0.677 19.185,-2.033 0.104,-2.398 0.225,-4.596 0.365,-6.595 0.139,-1.999 0.47,-5.5 0.99,-10.504 -3.197,1.285 -6.117,2.18 -8.758,2.685 -2.641,0.503 -4.918,0.755 -6.829,0.755 -2.711,0 -4.962,-0.504 -6.751,-1.511 -1.791,-1.009 -2.685,-2.26 -2.685,-3.754 0,-0.695 0.138,-1.373 0.417,-2.033 0.278,-0.66 0.8,-1.433 1.564,-2.32 0.764,-0.886 1.773,-1.86 3.024,-2.919 1.251,-1.061 3.214,-2.633 5.89,-4.718 l 3.754,-2.972 c 1.112,-0.904 2.311,-1.999 3.598,-3.284 1.285,-1.286 2.397,-2.554 3.336,-3.806 0.938,-1.251 1.659,-2.398 2.163,-3.44 0.504,-1.043 0.878,-2.095 1.121,-3.155 0.243,-1.06 0.365,-2.198 0.365,-3.414 0,-3.129 -0.748,-6.109 -2.242,-8.941 C 45.633,6.629 43.513,4.301 40.768,2.477 38.021,0.651 35.007,-0.626 31.723,-1.355 28.437,-2.085 24.971,-2.45 21.322,-2.45 15.691,-2.45 8.584,-1.633 0,0"
             style="fill:#2fab48;fill-opacity:1;fill-rule:nonzero;stroke:none"
             id="path38"
             inkscape:connector-curvature="0" /></g><g
           id="g40"
           transform="translate(428.2197,265.0078)"><path
             d="m 0,0 c -0.452,7.403 -0.974,13.328 -1.564,17.777 3.899,-1.738 7.373,-2.945 10.418,-3.623 3.047,-0.677 5.72,-1.016 8.019,-1.016 3.028,0 5.439,0.442 7.233,1.329 1.793,0.886 2.69,2.197 2.69,3.936 0,0.59 -0.087,1.155 -0.262,1.694 -0.174,0.538 -0.505,1.147 -0.992,1.825 -0.487,0.678 -1.185,1.415 -2.089,2.215 l -9.822,8.55 c -2.299,1.946 -3.901,3.354 -4.806,4.223 -1.846,1.772 -3.283,3.423 -4.31,4.952 -1.028,1.529 -1.777,3.084 -2.246,4.666 -0.471,1.581 -0.706,3.259 -0.706,5.031 0,2.119 0.374,4.196 1.122,6.23 0.747,2.033 1.868,3.936 3.362,5.708 1.494,1.773 3.475,3.302 5.943,4.588 2.467,1.285 5.11,2.164 7.924,2.633 2.815,0.469 5.717,0.703 8.706,0.703 5.873,0 12.269,-0.677 19.185,-2.033 0.104,-2.398 0.225,-4.596 0.365,-6.595 0.139,-1.999 0.47,-5.5 0.99,-10.504 -3.197,1.285 -6.117,2.18 -8.758,2.685 -2.641,0.503 -4.918,0.755 -6.829,0.755 -2.711,0 -4.962,-0.504 -6.751,-1.511 -1.791,-1.009 -2.685,-2.26 -2.685,-3.754 0,-0.695 0.138,-1.373 0.417,-2.033 0.278,-0.66 0.8,-1.433 1.564,-2.32 0.764,-0.886 1.773,-1.86 3.024,-2.919 1.251,-1.061 3.214,-2.633 5.89,-4.718 l 3.754,-2.972 c 1.112,-0.904 2.311,-1.999 3.598,-3.284 1.285,-1.286 2.397,-2.554 3.336,-3.806 0.938,-1.251 1.659,-2.398 2.163,-3.44 0.504,-1.043 0.878,-2.095 1.121,-3.155 0.243,-1.06 0.365,-2.198 0.365,-3.414 0,-3.129 -0.748,-6.109 -2.242,-8.941 C 45.633,6.629 43.513,4.301 40.768,2.477 38.021,0.651 35.007,-0.626 31.723,-1.355 28.437,-2.085 24.971,-2.45 21.322,-2.45 15.691,-2.45 8.584,-1.633 0,0"
             style="fill:#2fab48;fill-opacity:1;fill-rule:nonzero;stroke:none"
             id="path42"
             inkscape:connector-curvature="0" /></g><g
           id="g44"
           transform="translate(503.0879,258.2588)"><path
             d="m 0,0 c 2.75,1.751 8.492,9.382 10.508,12.425 2.998,4.529 5.656,9.495 7.807,15.228 4.673,12.451 6.007,25.61 3.589,39.939 -0.459,2.717 -2.382,3.823 -4.954,6.421 -4.564,4.61 -14.575,11.273 -20.136,14.312 -4.839,2.646 -10.452,5.118 -16.181,6.848 -3.94,1.189 -15.216,4.017 -19.409,3.406 6.618,-1.644 17.037,-9.188 21.71,-14.079 C -10.82,77.962 -6.533,71.393 -2.963,62.603 3.854,45.82 5.054,25.764 1.648,7.646 1.186,5.186 0.29,2.295 0,0"
             style="fill:#2d98a0;fill-opacity:1;fill-rule:evenodd;stroke:none"
             id="path46"
             inkscape:connector-curvature="0" /></g><g
           id="g48"
           transform="translate(450.4814,236.4043)"><path
             d="m 0,0 c 10.732,-0.14 20.732,2.34 29.522,5.917 3.998,1.627 8.332,3.897 11.568,6.103 5.764,3.929 5.264,2.393 7.348,10.32 4.496,17.099 5.133,37.038 -0.346,54.299 -0.487,1.529 -2.063,5.357 -2.257,6.436 -0.157,-1.291 0.491,-5.43 0.549,-7.246 C 47.114,52.518 34.302,29.566 18.313,14.446 10.581,7.134 9.573,6.643 0.687,0.551 Z"
             style="fill:#2e4d9b;fill-opacity:1;fill-rule:evenodd;stroke:none"
             id="path50"
             inkscape:connector-curvature="0" /></g><g
           id="g52"
           transform="translate(408.7549,250.9053)"><path
             d="m 0,0 c 3.729,-4.192 15.11,-9.935 20.475,-11.897 2.528,-0.926 10.552,-3.669 12.765,-2.513 6.194,3.232 9.665,5.416 14.947,9.433 3.787,2.881 5.426,4.454 8.76,7.569 2.31,2.158 5.748,5.929 7.852,8.472 2.365,2.86 8.996,11.779 9.871,14.622 C 70.81,20.86 66.979,16.832 61.754,13.216 56.644,9.679 51.459,6.822 44.841,4.411 38.327,2.037 31.412,0.371 23.982,-0.442 13.234,-1.62 10.024,-0.847 0,0"
             style="fill:#919292;fill-opacity:1;fill-rule:evenodd;stroke:none"
             id="path54"
             inkscape:connector-curvature="0" /></g><g
           id="g56"
           transform="translate(516.4609,369.605)"><path
             d="m 0,0 c -7.646,-1.497 -12.021,-8.025 -10.779,-15.204 1.071,-6.186 7.413,-12.242 15.163,-10.667 6.399,1.301 12.018,7.082 10.726,15.04 C 14.074,-4.45 7.854,1.538 0,0"
             style="fill:#f5f015;fill-opacity:1;fill-rule:evenodd;stroke:none"
             id="path58"
             inkscape:connector-curvature="0" /></g><g
           id="g60"
           transform="translate(54.7593,247.9404)"><path
             d="M 0,0 V 10.737 H 7.961 V 8.921 H 2.168 V 6.541 H 7.559 V 4.731 H 2.168 V 1.809 H 8.167 V 0 Z"
             style="fill:#100f0d;fill-opacity:1;fill-rule:nonzero;stroke:none"
             id="path62"
             inkscape:connector-curvature="0" /></g><g
           id="g64"
           transform="translate(64.0244,250.1592)"><path
             d="m 0,0 2.065,0.315 c 0.088,-0.4 0.267,-0.704 0.535,-0.912 0.269,-0.207 0.645,-0.311 1.128,-0.311 0.532,0 0.933,0.097 1.201,0.293 C 5.11,-0.479 5.2,-0.295 5.2,-0.065 5.2,0.091 5.151,0.221 5.054,0.322 4.951,0.42 4.722,0.511 4.365,0.594 2.705,0.96 1.653,1.294 1.208,1.598 0.593,2.017 0.286,2.601 0.286,3.348 c 0,0.673 0.266,1.24 0.798,1.699 0.532,0.459 1.357,0.688 2.476,0.688 1.064,0 1.855,-0.173 2.373,-0.52 C 6.45,4.868 6.807,4.355 7.002,3.678 L 5.061,3.318 C 4.978,3.621 4.82,3.854 4.589,4.014 4.356,4.176 4.026,4.256 3.596,4.256 3.054,4.256 2.666,4.18 2.432,4.029 2.275,3.921 2.197,3.782 2.197,3.611 2.197,3.465 2.266,3.34 2.402,3.238 2.588,3.101 3.229,2.908 4.325,2.659 5.421,2.41 6.187,2.104 6.621,1.744 7.051,1.377 7.266,0.867 7.266,0.213 7.266,-0.5 6.968,-1.113 6.372,-1.625 5.776,-2.139 4.895,-2.395 3.728,-2.395 2.668,-2.395 1.83,-2.18 1.212,-1.75 0.594,-1.32 0.19,-0.737 0,0"
             style="fill:#100f0d;fill-opacity:1;fill-rule:nonzero;stroke:none"
             id="path66"
             inkscape:connector-curvature="0" /></g><g
           id="g68"
           transform="translate(79.874,253.4189)"><path
             d="m 0,0 -2.029,-0.366 c -0.068,0.405 -0.223,0.71 -0.465,0.915 -0.242,0.205 -0.555,0.308 -0.941,0.308 -0.513,0 -0.922,-0.177 -1.227,-0.531 -0.305,-0.354 -0.458,-0.946 -0.458,-1.776 0,-0.923 0.155,-1.575 0.465,-1.956 0.31,-0.381 0.727,-0.571 1.249,-0.571 0.391,0 0.711,0.111 0.96,0.333 0.249,0.222 0.425,0.605 0.527,1.146 L 0.103,-2.842 C -0.107,-3.77 -0.51,-4.471 -1.106,-4.943 -1.702,-5.418 -2.5,-5.654 -3.501,-5.654 c -1.138,0 -2.045,0.359 -2.721,1.076 -0.676,0.719 -1.014,1.712 -1.014,2.981 0,1.285 0.339,2.284 1.018,2.999 0.678,0.716 1.596,1.074 2.754,1.074 0.947,0 1.7,-0.205 2.259,-0.612 C -0.646,1.456 -0.244,0.835 0,0"
             style="fill:#100f0d;fill-opacity:1;fill-rule:nonzero;stroke:none"
             id="path70"
             inkscape:connector-curvature="0" /></g><g
           id="g72"
           transform="translate(83.0674,251.8291)"><path
             d="m 0,0 c 0,-0.771 0.183,-1.361 0.549,-1.771 0.367,-0.411 0.818,-0.616 1.355,-0.616 0.537,0 0.988,0.205 1.352,0.616 0.363,0.41 0.545,1.004 0.545,1.787 0,0.761 -0.182,1.347 -0.545,1.757 C 2.892,2.184 2.441,2.389 1.904,2.389 1.367,2.389 0.916,2.184 0.549,1.773 0.183,1.363 0,0.771 0,0 m -2.109,0.11 c 0,0.684 0.168,1.345 0.505,1.986 0.337,0.638 0.814,1.127 1.432,1.465 0.617,0.335 1.307,0.504 2.069,0.504 1.177,0 2.141,-0.381 2.893,-1.146 0.752,-0.764 1.128,-1.73 1.128,-2.897 0,-1.176 -0.38,-2.152 -1.139,-2.925 -0.759,-0.775 -1.715,-1.161 -2.867,-1.161 -0.713,0 -1.393,0.161 -2.04,0.483 -0.647,0.322 -1.139,0.795 -1.476,1.417 -0.337,0.623 -0.505,1.381 -0.505,2.274"
             style="fill:#100f0d;fill-opacity:1;fill-rule:nonzero;stroke:none"
             id="path74"
             inkscape:connector-curvature="0" /></g><path
           d="m 90.597,258.678 h 2.058 v -10.737 h -2.058 z"
           style="fill:#100f0d;fill-opacity:1;fill-rule:nonzero;stroke:none"
           id="path76"
           inkscape:connector-curvature="0" /><g
           id="g78"
           transform="translate(99.0562,251.6758)"><path
             d="m 0,0 c -0.264,-0.088 -0.681,-0.193 -1.252,-0.315 -0.572,-0.122 -0.945,-0.242 -1.121,-0.359 -0.269,-0.19 -0.403,-0.432 -0.403,-0.725 0,-0.288 0.108,-0.538 0.322,-0.747 0.215,-0.21 0.489,-0.315 0.821,-0.315 0.371,0 0.725,0.122 1.062,0.366 0.249,0.186 0.412,0.412 0.49,0.682 C -0.027,-1.237 0,-0.903 0,-0.41 Z m -2.754,1.67 -1.868,0.337 c 0.21,0.752 0.572,1.308 1.084,1.67 0.513,0.361 1.275,0.542 2.286,0.542 0.918,0 1.601,-0.109 2.05,-0.326 C 1.248,3.676 1.564,3.399 1.747,3.065 1.93,2.73 2.021,2.116 2.021,1.224 L 2,-1.179 c 0,-0.684 0.033,-1.188 0.098,-1.512 0.067,-0.326 0.19,-0.673 0.37,-1.044 H 0.432 c -0.054,0.136 -0.12,0.339 -0.198,0.607 -0.034,0.122 -0.058,0.203 -0.073,0.242 -0.351,-0.342 -0.727,-0.598 -1.128,-0.769 -0.4,-0.17 -0.827,-0.256 -1.282,-0.256 -0.8,0 -1.431,0.217 -1.893,0.652 -0.461,0.434 -0.692,0.984 -0.692,1.648 0,0.439 0.105,0.831 0.315,1.175 0.21,0.344 0.504,0.608 0.883,0.791 0.378,0.183 0.924,0.343 1.636,0.48 0.962,0.181 1.629,0.349 2,0.506 V 1.546 C 0,1.94 -0.098,2.223 -0.293,2.392 -0.488,2.56 -0.857,2.644 -1.399,2.644 -1.765,2.644 -2.051,2.572 -2.256,2.428 -2.461,2.284 -2.627,2.031 -2.754,1.67"
             style="fill:#100f0d;fill-opacity:1;fill-rule:nonzero;stroke:none"
             id="path80"
             inkscape:connector-curvature="0" /></g><g
           id="g82"
           transform="translate(107.3105,247.9404)"><path
             d="M 0,0 V 10.737 H 2.109 L 6.504,3.566 v 7.171 H 8.518 V 0 H 6.343 L 2.014,7.002 V 0 Z"
             style="fill:#100f0d;fill-opacity:1;fill-rule:nonzero;stroke:none"
             id="path84"
             inkscape:connector-curvature="0" /></g><g
           id="g86"
           transform="translate(122.3984,251.6758)"><path
             d="m 0,0 c -0.264,-0.088 -0.681,-0.193 -1.252,-0.315 -0.572,-0.122 -0.945,-0.242 -1.121,-0.359 -0.269,-0.19 -0.403,-0.432 -0.403,-0.725 0,-0.288 0.108,-0.538 0.322,-0.747 0.215,-0.21 0.489,-0.315 0.821,-0.315 0.371,0 0.725,0.122 1.062,0.366 0.249,0.186 0.412,0.412 0.49,0.682 C -0.027,-1.237 0,-0.903 0,-0.41 Z m -2.754,1.67 -1.868,0.337 c 0.21,0.752 0.572,1.308 1.084,1.67 0.513,0.361 1.275,0.542 2.286,0.542 0.918,0 1.601,-0.109 2.05,-0.326 C 1.248,3.676 1.564,3.399 1.747,3.065 1.93,2.73 2.021,2.116 2.021,1.224 L 2,-1.179 c 0,-0.684 0.033,-1.188 0.098,-1.512 0.067,-0.326 0.19,-0.673 0.37,-1.044 H 0.432 c -0.054,0.136 -0.12,0.339 -0.198,0.607 -0.034,0.122 -0.058,0.203 -0.073,0.242 -0.351,-0.342 -0.727,-0.598 -1.128,-0.769 -0.4,-0.17 -0.827,-0.256 -1.282,-0.256 -0.8,0 -1.431,0.217 -1.893,0.652 -0.461,0.434 -0.692,0.984 -0.692,1.648 0,0.439 0.105,0.831 0.315,1.175 0.21,0.344 0.504,0.608 0.883,0.791 0.378,0.183 0.924,0.343 1.636,0.48 0.962,0.181 1.629,0.349 2,0.506 V 1.546 C 0,1.94 -0.098,2.223 -0.293,2.392 -0.488,2.56 -0.857,2.644 -1.399,2.644 -1.765,2.644 -2.051,2.572 -2.256,2.428 -2.461,2.284 -2.627,2.031 -2.754,1.67"
             style="fill:#100f0d;fill-opacity:1;fill-rule:nonzero;stroke:none"
             id="path88"
             inkscape:connector-curvature="0" /></g><g
           id="g90"
           transform="translate(133.231,253.4189)"><path
             d="m 0,0 -2.029,-0.366 c -0.068,0.405 -0.223,0.71 -0.465,0.915 -0.242,0.205 -0.555,0.308 -0.941,0.308 -0.513,0 -0.922,-0.177 -1.227,-0.531 -0.305,-0.354 -0.458,-0.946 -0.458,-1.776 0,-0.923 0.155,-1.575 0.465,-1.956 0.31,-0.381 0.727,-0.571 1.249,-0.571 0.391,0 0.711,0.111 0.96,0.333 0.249,0.222 0.425,0.605 0.527,1.146 L 0.103,-2.842 C -0.107,-3.77 -0.51,-4.471 -1.106,-4.943 -1.702,-5.418 -2.5,-5.654 -3.501,-5.654 c -1.138,0 -2.045,0.359 -2.721,1.076 -0.676,0.719 -1.014,1.712 -1.014,2.981 0,1.285 0.339,2.284 1.018,2.999 0.678,0.716 1.596,1.074 2.754,1.074 0.947,0 1.7,-0.205 2.259,-0.612 C -0.646,1.456 -0.244,0.835 0,0"
             style="fill:#100f0d;fill-opacity:1;fill-rule:nonzero;stroke:none"
             id="path92"
             inkscape:connector-curvature="0" /></g><path
           d="m 134.791,255.719 h 2.058 v -7.778 h -2.058 z m 0,2.959 h 2.058 v -1.904 h -2.058 z"
           style="fill:#100f0d;fill-opacity:1;fill-rule:nonzero;stroke:none"
           id="path94"
           inkscape:connector-curvature="0" /><g
           id="g96"
           transform="translate(140.5918,251.8291)"><path
             d="m 0,0 c 0,-0.771 0.183,-1.361 0.549,-1.771 0.367,-0.411 0.818,-0.616 1.355,-0.616 0.537,0 0.988,0.205 1.352,0.616 0.363,0.41 0.545,1.004 0.545,1.787 0,0.761 -0.182,1.347 -0.545,1.757 C 2.892,2.184 2.441,2.389 1.904,2.389 1.367,2.389 0.916,2.184 0.549,1.773 0.183,1.363 0,0.771 0,0 m -2.109,0.11 c 0,0.684 0.168,1.345 0.505,1.986 0.337,0.638 0.814,1.127 1.432,1.465 0.617,0.335 1.307,0.504 2.069,0.504 1.177,0 2.141,-0.381 2.893,-1.146 0.752,-0.764 1.128,-1.73 1.128,-2.897 0,-1.176 -0.38,-2.152 -1.139,-2.925 -0.759,-0.775 -1.715,-1.161 -2.867,-1.161 -0.713,0 -1.393,0.161 -2.04,0.483 -0.647,0.322 -1.139,0.795 -1.476,1.417 -0.337,0.623 -0.505,1.381 -0.505,2.274"
             style="fill:#100f0d;fill-opacity:1;fill-rule:nonzero;stroke:none"
             id="path98"
             inkscape:connector-curvature="0" /></g><g
           id="g100"
           transform="translate(155.1963,247.9404)"><path
             d="m 0,0 h -2.058 v 3.97 c 0,0.84 -0.044,1.383 -0.132,1.63 -0.088,0.246 -0.23,0.437 -0.429,0.574 -0.197,0.137 -0.435,0.205 -0.714,0.205 -0.356,0 -0.676,-0.098 -0.959,-0.293 C -4.575,5.891 -4.77,5.633 -4.875,5.311 -4.979,4.988 -5.032,4.392 -5.032,3.523 V 0 H -7.09 v 7.778 h 1.912 V 6.636 c 0.678,0.879 1.533,1.318 2.563,1.318 0.454,0 0.869,-0.082 1.245,-0.245 C -0.994,7.545 -0.709,7.336 -0.516,7.082 -0.324,6.828 -0.189,6.541 -0.114,6.219 -0.038,5.896 0,5.435 0,4.834 Z"
             style="fill:#100f0d;fill-opacity:1;fill-rule:nonzero;stroke:none"
             id="path102"
             inkscape:connector-curvature="0" /></g><g
           id="g104"
           transform="translate(161.5757,251.6758)"><path
             d="m 0,0 c -0.264,-0.088 -0.681,-0.193 -1.252,-0.315 -0.572,-0.122 -0.945,-0.242 -1.121,-0.359 -0.269,-0.19 -0.403,-0.432 -0.403,-0.725 0,-0.288 0.108,-0.538 0.322,-0.747 0.215,-0.21 0.489,-0.315 0.821,-0.315 0.371,0 0.725,0.122 1.062,0.366 0.249,0.186 0.412,0.412 0.49,0.682 C -0.027,-1.237 0,-0.903 0,-0.41 Z m -2.754,1.67 -1.868,0.337 c 0.21,0.752 0.572,1.308 1.084,1.67 0.513,0.361 1.275,0.542 2.286,0.542 0.918,0 1.601,-0.109 2.05,-0.326 C 1.248,3.676 1.564,3.399 1.747,3.065 1.93,2.73 2.021,2.116 2.021,1.224 L 2,-1.179 c 0,-0.684 0.033,-1.188 0.098,-1.512 0.067,-0.326 0.19,-0.673 0.37,-1.044 H 0.432 c -0.054,0.136 -0.12,0.339 -0.198,0.607 -0.034,0.122 -0.058,0.203 -0.073,0.242 -0.351,-0.342 -0.727,-0.598 -1.128,-0.769 -0.4,-0.17 -0.827,-0.256 -1.282,-0.256 -0.8,0 -1.431,0.217 -1.893,0.652 -0.461,0.434 -0.692,0.984 -0.692,1.648 0,0.439 0.105,0.831 0.315,1.175 0.21,0.344 0.504,0.608 0.883,0.791 0.378,0.183 0.924,0.343 1.636,0.48 0.962,0.181 1.629,0.349 2,0.506 V 1.546 C 0,1.94 -0.098,2.223 -0.293,2.392 -0.488,2.56 -0.857,2.644 -1.399,2.644 -1.765,2.644 -2.051,2.572 -2.256,2.428 -2.461,2.284 -2.627,2.031 -2.754,1.67"
             style="fill:#100f0d;fill-opacity:1;fill-rule:nonzero;stroke:none"
             id="path106"
             inkscape:connector-curvature="0" /></g><path
           d="m 165.626,258.678 h 2.058 v -10.737 h -2.058 z"
           style="fill:#100f0d;fill-opacity:1;fill-rule:nonzero;stroke:none"
           id="path108"
           inkscape:connector-curvature="0" /><g
           id="g110"
           transform="translate(175.6016,251.998)"><path
             d="m 0,0 c 0,-0.83 0.115,-1.431 0.344,-1.802 0.332,-0.537 0.796,-0.805 1.392,-0.805 0.473,0 0.876,0.201 1.208,0.604 0.332,0.402 0.498,1.004 0.498,1.805 0,0.894 -0.161,1.537 -0.483,1.93 C 2.637,2.125 2.224,2.321 1.721,2.321 1.233,2.321 0.824,2.128 0.495,1.739 0.165,1.352 0,0.771 0,0 M 5.493,-4.058 H 3.582 v 1.143 C 3.264,-3.359 2.889,-3.69 2.458,-3.907 2.025,-4.125 1.589,-4.233 1.15,-4.233 c -0.894,0 -1.659,0.36 -2.296,1.08 -0.638,0.72 -0.956,1.724 -0.956,3.013 0,1.319 0.31,2.322 0.93,3.007 0.62,0.687 1.404,1.029 2.351,1.029 0.869,0 1.621,-0.361 2.256,-1.083 V 6.68 h 2.058 z"
             style="fill:#100f0d;fill-opacity:1;fill-rule:nonzero;stroke:none"
             id="path112"
             inkscape:connector-curvature="0" /></g><g
           id="g114"
           transform="translate(187.7451,252.4961)"><path
             d="m 0,0 c -0.015,0.596 -0.168,1.049 -0.461,1.358 -0.293,0.311 -0.65,0.465 -1.07,0.465 -0.449,0 -0.82,-0.163 -1.113,-0.49 C -2.937,1.006 -3.081,0.562 -3.076,0 Z M -0.117,-2.08 1.934,-2.425 C 1.67,-3.177 1.253,-3.749 0.685,-4.142 0.116,-4.535 -0.596,-4.731 -1.45,-4.731 c -1.353,0 -2.354,0.441 -3.003,1.326 -0.513,0.707 -0.769,1.6 -0.769,2.679 0,1.289 0.337,2.299 1.011,3.03 0.673,0.729 1.525,1.094 2.556,1.094 1.157,0 2.07,-0.381 2.739,-1.146 C 1.753,1.488 2.073,0.317 2.043,-1.26 h -5.156 c 0.015,-0.61 0.181,-1.085 0.498,-1.425 0.318,-0.338 0.713,-0.508 1.187,-0.508 0.322,0 0.593,0.088 0.813,0.263 0.219,0.176 0.386,0.459 0.498,0.85"
             style="fill:#100f0d;fill-opacity:1;fill-rule:nonzero;stroke:none"
             id="path116"
             inkscape:connector-curvature="0" /></g><g
           id="g118"
           transform="translate(195.6479,247.9404)"><path
             d="M 0,0 V 10.737 H 7.961 V 8.921 H 2.168 V 6.541 H 7.559 V 4.731 H 2.168 V 1.809 H 8.167 V 0 Z"
             style="fill:#100f0d;fill-opacity:1;fill-rule:nonzero;stroke:none"
             id="path120"
             inkscape:connector-curvature="0" /></g><g
           id="g122"
           transform="translate(212.7134,247.9404)"><path
             d="m 0,0 h -2.058 v 3.97 c 0,0.84 -0.044,1.383 -0.132,1.63 -0.088,0.246 -0.23,0.437 -0.429,0.574 -0.197,0.137 -0.435,0.205 -0.714,0.205 -0.356,0 -0.676,-0.098 -0.959,-0.293 C -4.575,5.891 -4.77,5.633 -4.875,5.311 -4.979,4.988 -5.032,4.392 -5.032,3.523 V 0 H -7.09 v 7.778 h 1.912 V 6.636 c 0.678,0.879 1.533,1.318 2.563,1.318 0.454,0 0.869,-0.082 1.245,-0.245 C -0.994,7.545 -0.709,7.336 -0.516,7.082 -0.324,6.828 -0.189,6.541 -0.114,6.219 -0.038,5.896 0,5.435 0,4.834 Z"
             style="fill:#100f0d;fill-opacity:1;fill-rule:nonzero;stroke:none"
             id="path124"
             inkscape:connector-curvature="0" /></g><g
           id="g126"
           transform="translate(214.0757,250.1592)"><path
             d="m 0,0 2.065,0.315 c 0.088,-0.4 0.267,-0.704 0.535,-0.912 0.269,-0.207 0.645,-0.311 1.128,-0.311 0.532,0 0.933,0.097 1.201,0.293 C 5.11,-0.479 5.2,-0.295 5.2,-0.065 5.2,0.091 5.151,0.221 5.054,0.322 4.951,0.42 4.722,0.511 4.365,0.594 2.705,0.96 1.653,1.294 1.208,1.598 0.593,2.017 0.286,2.601 0.286,3.348 c 0,0.673 0.266,1.24 0.798,1.699 0.532,0.459 1.357,0.688 2.476,0.688 1.064,0 1.855,-0.173 2.373,-0.52 C 6.45,4.868 6.807,4.355 7.002,3.678 L 5.061,3.318 C 4.978,3.621 4.82,3.854 4.589,4.014 4.356,4.176 4.026,4.256 3.596,4.256 3.054,4.256 2.666,4.18 2.432,4.029 2.275,3.921 2.197,3.782 2.197,3.611 2.197,3.465 2.266,3.34 2.402,3.238 2.588,3.101 3.229,2.908 4.325,2.659 5.421,2.41 6.187,2.104 6.621,1.744 7.051,1.377 7.266,0.867 7.266,0.213 7.266,-0.5 6.968,-1.113 6.372,-1.625 5.776,-2.139 4.895,-2.395 3.728,-2.395 2.668,-2.395 1.83,-2.18 1.212,-1.75 0.594,-1.32 0.19,-0.737 0,0"
             style="fill:#100f0d;fill-opacity:1;fill-rule:nonzero;stroke:none"
             id="path128"
             inkscape:connector-curvature="0" /></g><path
           d="m 223.143,255.719 h 2.058 v -7.778 h -2.058 z m 0,2.959 h 2.058 v -1.904 h -2.058 z"
           style="fill:#100f0d;fill-opacity:1;fill-rule:nonzero;stroke:none"
           id="path130"
           inkscape:connector-curvature="0" /><g
           id="g132"
           transform="translate(234.3857,247.9404)"><path
             d="m 0,0 h -2.058 v 3.97 c 0,0.84 -0.044,1.383 -0.132,1.63 -0.088,0.246 -0.23,0.437 -0.429,0.574 -0.197,0.137 -0.435,0.205 -0.714,0.205 -0.356,0 -0.676,-0.098 -0.959,-0.293 C -4.575,5.891 -4.77,5.633 -4.875,5.311 -4.979,4.988 -5.032,4.392 -5.032,3.523 V 0 H -7.09 v 7.778 h 1.912 V 6.636 c 0.678,0.879 1.533,1.318 2.563,1.318 0.454,0 0.869,-0.082 1.245,-0.245 C -0.994,7.545 -0.709,7.336 -0.516,7.082 -0.324,6.828 -0.189,6.541 -0.114,6.219 -0.038,5.896 0,5.435 0,4.834 Z"
             style="fill:#100f0d;fill-opacity:1;fill-rule:nonzero;stroke:none"
             id="path134"
             inkscape:connector-curvature="0" /></g><g
           id="g136"
           transform="translate(238.1064,251.8291)"><path
             d="m 0,0 c 0,-0.771 0.183,-1.361 0.549,-1.771 0.367,-0.411 0.818,-0.616 1.355,-0.616 0.537,0 0.988,0.205 1.352,0.616 0.363,0.41 0.545,1.004 0.545,1.787 0,0.761 -0.182,1.347 -0.545,1.757 C 2.892,2.184 2.441,2.389 1.904,2.389 1.367,2.389 0.916,2.184 0.549,1.773 0.183,1.363 0,0.771 0,0 m -2.109,0.11 c 0,0.684 0.168,1.345 0.505,1.986 0.337,0.638 0.814,1.127 1.432,1.465 0.617,0.335 1.307,0.504 2.069,0.504 1.177,0 2.141,-0.381 2.893,-1.146 0.752,-0.764 1.128,-1.73 1.128,-2.897 0,-1.176 -0.38,-2.152 -1.139,-2.925 -0.759,-0.775 -1.715,-1.161 -2.867,-1.161 -0.713,0 -1.393,0.161 -2.04,0.483 -0.647,0.322 -1.139,0.795 -1.476,1.417 -0.337,0.623 -0.505,1.381 -0.505,2.274"
             style="fill:#100f0d;fill-opacity:1;fill-rule:nonzero;stroke:none"
             id="path138"
             inkscape:connector-curvature="0" /></g><g
           id="g140"
           transform="translate(254.4248,252.4961)"><path
             d="m 0,0 c -0.015,0.596 -0.168,1.049 -0.461,1.358 -0.293,0.311 -0.65,0.465 -1.07,0.465 -0.449,0 -0.82,-0.163 -1.113,-0.49 C -2.937,1.006 -3.081,0.562 -3.076,0 Z M -0.117,-2.08 1.934,-2.425 C 1.67,-3.177 1.253,-3.749 0.685,-4.142 0.116,-4.535 -0.596,-4.731 -1.45,-4.731 c -1.353,0 -2.354,0.441 -3.003,1.326 -0.513,0.707 -0.769,1.6 -0.769,2.679 0,1.289 0.337,2.299 1.011,3.03 0.673,0.729 1.525,1.094 2.556,1.094 1.157,0 2.07,-0.381 2.739,-1.146 C 1.753,1.488 2.073,0.317 2.043,-1.26 h -5.156 c 0.015,-0.61 0.181,-1.085 0.498,-1.425 0.318,-0.338 0.713,-0.508 1.187,-0.508 0.322,0 0.593,0.088 0.813,0.263 0.219,0.176 0.386,0.459 0.498,0.85"
             style="fill:#100f0d;fill-opacity:1;fill-rule:nonzero;stroke:none"
             id="path142"
             inkscape:connector-curvature="0" /></g><g
           id="g144"
           transform="translate(257.9917,255.7187)"><path
             d="m 0,0 h 1.897 v -1.062 c 0.679,0.825 1.487,1.238 2.424,1.238 0.498,0 0.93,-0.103 1.297,-0.308 0.366,-0.205 0.666,-0.515 0.901,-0.93 0.341,0.415 0.71,0.725 1.106,0.93 0.395,0.205 0.817,0.308 1.267,0.308 0.571,0 1.054,-0.116 1.45,-0.348 0.395,-0.232 0.691,-0.573 0.886,-1.022 0.142,-0.332 0.212,-0.869 0.212,-1.612 V -7.778 H 9.382 v 4.445 c 0,0.771 -0.07,1.27 -0.212,1.494 -0.191,0.293 -0.483,0.44 -0.879,0.44 -0.288,0 -0.559,-0.088 -0.813,-0.264 C 7.224,-1.839 7.041,-2.096 6.929,-2.436 6.816,-2.774 6.76,-3.311 6.76,-4.043 V -7.778 H 4.702 v 4.262 c 0,0.757 -0.036,1.245 -0.11,1.465 -0.073,0.22 -0.187,0.383 -0.34,0.491 -0.154,0.107 -0.363,0.161 -0.627,0.161 -0.317,0 -0.603,-0.085 -0.856,-0.256 C 2.515,-1.826 2.333,-2.073 2.223,-2.396 2.113,-2.718 2.058,-3.252 2.058,-3.999 V -7.778 H 0 Z"
             style="fill:#100f0d;fill-opacity:1;fill-rule:nonzero;stroke:none"
             id="path146"
             inkscape:connector-curvature="0" /></g><g
           id="g148"
           transform="translate(275.1157,251.4346)"><path
             d="m 0,0 2.109,0.205 c 0.127,-0.709 0.385,-1.228 0.773,-1.56 0.389,-0.332 0.912,-0.499 1.571,-0.499 0.698,0 1.224,0.148 1.578,0.444 0.354,0.295 0.531,0.64 0.531,1.036 0,0.254 -0.074,0.47 -0.223,0.648 C 6.19,0.452 5.93,0.607 5.559,0.739 5.305,0.827 4.727,0.983 3.823,1.208 2.661,1.496 1.846,1.85 1.377,2.27 0.718,2.86 0.388,3.581 0.388,4.431 0.388,4.978 0.543,5.489 0.854,5.965 1.163,6.441 1.61,6.804 2.193,7.053 2.777,7.302 3.481,7.426 4.307,7.426 5.654,7.426 6.669,7.131 7.35,6.54 8.031,5.949 8.388,5.16 8.423,4.174 L 6.255,4.079 C 6.162,4.631 5.963,5.027 5.658,5.27 5.353,5.511 4.895,5.632 4.285,5.632 3.655,5.632 3.162,5.502 2.805,5.244 2.576,5.077 2.461,4.855 2.461,4.577 2.461,4.323 2.568,4.105 2.783,3.926 3.057,3.695 3.721,3.457 4.775,3.207 5.83,2.959 6.61,2.701 7.115,2.435 7.621,2.169 8.017,1.805 8.302,1.344 8.587,0.882 8.73,0.312 8.73,-0.367 8.73,-0.982 8.56,-1.559 8.218,-2.096 7.876,-2.633 7.393,-3.031 6.768,-3.293 6.143,-3.554 5.364,-3.685 4.431,-3.685 c -1.357,0 -2.4,0.314 -3.127,0.942 C 0.576,-2.116 0.142,-1.201 0,0"
             style="fill:#100f0d;fill-opacity:1;fill-rule:nonzero;stroke:none"
             id="path150"
             inkscape:connector-curvature="0" /></g><g
           id="g152"
           transform="translate(290.2764,252.4961)"><path
             d="M 0,0 C -0.015,0.596 -0.169,1.049 -0.462,1.358 -0.755,1.669 -1.111,1.823 -1.53,1.823 -1.98,1.823 -2.351,1.66 -2.644,1.333 -2.937,1.006 -3.081,0.562 -3.076,0 Z M -0.117,-2.08 1.934,-2.425 C 1.67,-3.177 1.254,-3.749 0.685,-4.142 0.116,-4.535 -0.596,-4.731 -1.45,-4.731 c -1.353,0 -2.354,0.441 -3.003,1.326 -0.513,0.707 -0.769,1.6 -0.769,2.679 0,1.289 0.336,2.299 1.01,3.03 0.674,0.729 1.526,1.094 2.557,1.094 1.157,0 2.07,-0.381 2.739,-1.146 0.669,-0.764 0.989,-1.935 0.96,-3.512 h -5.156 c 0.013,-0.61 0.179,-1.085 0.498,-1.425 0.316,-0.338 0.712,-0.508 1.185,-0.508 0.323,0 0.594,0.088 0.814,0.263 0.219,0.176 0.386,0.459 0.498,0.85"
             style="fill:#100f0d;fill-opacity:1;fill-rule:nonzero;stroke:none"
             id="path154"
             inkscape:connector-curvature="0" /></g><g
           id="g156"
           transform="translate(295.9668,247.9404)"><path
             d="m 0,0 h -2.059 v 7.778 h 1.913 V 6.672 c 0.327,0.522 0.621,0.867 0.882,1.033 0.261,0.166 0.558,0.249 0.89,0.249 0.469,0 0.92,-0.13 1.354,-0.388 L 2.344,5.771 C 1.997,5.996 1.675,6.108 1.377,6.108 1.089,6.108 0.845,6.029 0.645,5.87 0.444,5.712 0.287,5.425 0.172,5.01 0.058,4.595 0,3.726 0,2.402 Z"
             style="fill:#100f0d;fill-opacity:1;fill-rule:nonzero;stroke:none"
             id="path158"
             inkscape:connector-curvature="0" /></g><g
           id="g160"
           transform="translate(301.9727,247.9404)"><path
             d="m 0,0 -3.135,7.778 h 2.161 L 0.491,3.809 0.916,2.482 c 0.112,0.338 0.184,0.56 0.213,0.667 0.067,0.22 0.141,0.44 0.219,0.66 l 1.48,3.969 H 4.944 L 1.854,0 Z"
             style="fill:#100f0d;fill-opacity:1;fill-rule:nonzero;stroke:none"
             id="path162"
             inkscape:connector-curvature="0" /></g><path
           d="m 308.176,255.719 h 2.059 v -7.778 h -2.059 z m 0,2.959 h 2.059 v -1.904 h -2.059 z"
           style="fill:#100f0d;fill-opacity:1;fill-rule:nonzero;stroke:none"
           id="path164"
           inkscape:connector-curvature="0" /><g
           id="g166"
           transform="translate(313.582,244.9893)"><path
             d="m 0,0 v 0.863 c 0.503,-0.052 0.964,-0.08 1.385,-0.08 0.433,0 0.756,0.078 0.967,0.235 0.16,0.117 0.241,0.268 0.241,0.454 0,0.166 -0.076,0.31 -0.228,0.432 C 2.214,2.026 1.979,2.087 1.662,2.087 1.35,2.087 1.03,2.038 0.703,1.94 l 0.191,0.726 c 0.38,0.131 0.791,0.197 1.23,0.197 0.61,0 1.074,-0.134 1.392,-0.402 C 3.833,2.192 3.992,1.865 3.992,1.479 3.992,1.05 3.816,0.7 3.465,0.432 2.99,0.065 2.312,-0.117 1.428,-0.117 0.799,-0.117 0.322,-0.078 0,0 M 5.545,8.43 3.516,8.063 C 3.447,8.469 3.292,8.773 3.051,8.979 2.809,9.184 2.495,9.287 2.109,9.287 1.597,9.287 1.187,9.109 0.883,8.756 0.577,8.401 0.425,7.81 0.425,6.979 0.425,6.057 0.58,5.404 0.89,5.023 1.2,4.643 1.616,4.453 2.139,4.453 c 0.39,0 0.711,0.11 0.959,0.333 0.25,0.222 0.425,0.605 0.527,1.146 L 5.646,5.588 C 5.437,4.66 5.034,3.959 4.438,3.486 3.843,3.012 3.044,2.775 2.043,2.775 c -1.138,0 -2.044,0.36 -2.721,1.077 -0.676,0.718 -1.013,1.711 -1.013,2.981 0,1.284 0.338,2.284 1.017,2.999 0.679,0.716 1.597,1.073 2.754,1.073 0.947,0 1.7,-0.204 2.26,-0.611 C 4.898,9.886 5.3,9.265 5.545,8.43"
             style="fill:#100f0d;fill-opacity:1;fill-rule:nonzero;stroke:none"
             id="path168"
             inkscape:connector-curvature="0" /></g><g
           id="g170"
           transform="translate(322.3193,251.8291)"><path
             d="m 0,0 c 0,-0.771 0.183,-1.361 0.55,-1.771 0.365,-0.411 0.817,-0.616 1.354,-0.616 0.537,0 0.988,0.205 1.352,0.616 0.363,0.41 0.546,1.004 0.546,1.787 0,0.761 -0.183,1.347 -0.546,1.757 C 2.892,2.184 2.441,2.389 1.904,2.389 1.367,2.389 0.915,2.184 0.55,1.773 0.183,1.363 0,0.771 0,0 m -2.109,0.11 c 0,0.684 0.169,1.345 0.505,1.986 0.337,0.638 0.814,1.127 1.432,1.465 0.617,0.335 1.308,0.504 2.069,0.504 1.176,0 2.141,-0.381 2.893,-1.146 0.752,-0.764 1.128,-1.73 1.128,-2.897 0,-1.176 -0.38,-2.152 -1.139,-2.925 -0.759,-0.775 -1.716,-1.161 -2.868,-1.161 -0.713,0 -1.392,0.161 -2.039,0.483 -0.647,0.322 -1.139,0.795 -1.476,1.417 -0.336,0.623 -0.505,1.381 -0.505,2.274"
             style="fill:#100f0d;fill-opacity:1;fill-rule:nonzero;stroke:none"
             id="path172"
             inkscape:connector-curvature="0" /></g><g
           id="g174"
           transform="translate(329.123,250.1592)"><path
             d="m 0,0 2.065,0.315 c 0.088,-0.4 0.266,-0.704 0.535,-0.912 0.268,-0.207 0.644,-0.311 1.129,-0.311 0.531,0 0.931,0.097 1.201,0.293 0.179,0.136 0.27,0.32 0.27,0.55 C 5.2,0.091 5.151,0.221 5.054,0.322 4.951,0.42 4.722,0.511 4.365,0.594 2.705,0.96 1.652,1.294 1.209,1.598 0.594,2.017 0.285,2.601 0.285,3.348 c 0,0.673 0.267,1.24 0.799,1.699 0.532,0.459 1.357,0.688 2.476,0.688 1.064,0 1.855,-0.173 2.373,-0.52 C 6.45,4.868 6.807,4.355 7.002,3.678 L 5.061,3.318 C 4.978,3.621 4.82,3.854 4.589,4.014 4.356,4.176 4.025,4.256 3.596,4.256 3.055,4.256 2.666,4.18 2.432,4.029 2.275,3.921 2.197,3.782 2.197,3.611 2.197,3.465 2.266,3.34 2.402,3.238 2.588,3.101 3.229,2.908 4.325,2.659 5.421,2.41 6.187,2.104 6.621,1.744 7.051,1.377 7.266,0.867 7.266,0.213 7.266,-0.5 6.968,-1.113 6.372,-1.625 5.776,-2.139 4.895,-2.395 3.729,-2.395 2.668,-2.395 1.83,-2.18 1.212,-1.75 0.595,-1.32 0.19,-0.737 0,0"
             style="fill:#100f0d;fill-opacity:1;fill-rule:nonzero;stroke:none"
             id="path176"
             inkscape:connector-curvature="0" /></g><g
           id="g178"
           transform="translate(343.998,251.998)"><path
             d="m 0,0 c 0,-0.83 0.115,-1.431 0.345,-1.802 0.332,-0.537 0.796,-0.805 1.391,-0.805 0.474,0 0.876,0.201 1.209,0.604 0.331,0.402 0.498,1.004 0.498,1.805 0,0.894 -0.162,1.537 -0.484,1.93 C 2.637,2.125 2.225,2.321 1.722,2.321 1.233,2.321 0.824,2.128 0.495,1.739 0.165,1.352 0,0.771 0,0 M 5.494,-4.058 H 3.582 v 1.143 C 3.265,-3.359 2.89,-3.69 2.458,-3.907 2.025,-4.125 1.59,-4.233 1.15,-4.233 c -0.893,0 -1.659,0.36 -2.296,1.08 -0.637,0.72 -0.956,1.724 -0.956,3.013 0,1.319 0.31,2.322 0.93,3.007 0.62,0.687 1.404,1.029 2.352,1.029 0.869,0 1.621,-0.361 2.256,-1.083 V 6.68 h 2.058 z"
             style="fill:#100f0d;fill-opacity:1;fill-rule:nonzero;stroke:none"
             id="path180"
             inkscape:connector-curvature="0" /></g><g
           id="g182"
           transform="translate(356.1416,252.4961)"><path
             d="M 0,0 C -0.015,0.596 -0.169,1.049 -0.462,1.358 -0.755,1.669 -1.111,1.823 -1.53,1.823 -1.98,1.823 -2.351,1.66 -2.644,1.333 -2.937,1.006 -3.081,0.562 -3.076,0 Z M -0.117,-2.08 1.934,-2.425 C 1.67,-3.177 1.254,-3.749 0.685,-4.142 0.116,-4.535 -0.596,-4.731 -1.45,-4.731 c -1.353,0 -2.354,0.441 -3.003,1.326 -0.513,0.707 -0.769,1.6 -0.769,2.679 0,1.289 0.336,2.299 1.01,3.03 0.674,0.729 1.526,1.094 2.557,1.094 1.157,0 2.07,-0.381 2.739,-1.146 0.669,-0.764 0.989,-1.935 0.96,-3.512 h -5.156 c 0.013,-0.61 0.179,-1.085 0.498,-1.425 0.316,-0.338 0.712,-0.508 1.185,-0.508 0.323,0 0.594,0.088 0.814,0.263 0.219,0.176 0.386,0.459 0.498,0.85"
             style="fill:#100f0d;fill-opacity:1;fill-rule:nonzero;stroke:none"
             id="path184"
             inkscape:connector-curvature="0" /></g><g
           id="g186"
           transform="translate(363.4951,251.4346)"><path
             d="m 0,0 2.109,0.205 c 0.127,-0.709 0.385,-1.228 0.773,-1.56 0.389,-0.332 0.912,-0.499 1.571,-0.499 0.698,0 1.225,0.148 1.578,0.444 0.355,0.295 0.531,0.64 0.531,1.036 0,0.254 -0.074,0.47 -0.223,0.648 C 6.19,0.452 5.93,0.607 5.56,0.739 5.305,0.827 4.727,0.983 3.823,1.208 2.661,1.496 1.846,1.85 1.377,2.27 0.718,2.86 0.388,3.581 0.388,4.431 0.388,4.978 0.543,5.489 0.854,5.965 1.163,6.441 1.61,6.804 2.193,7.053 2.777,7.302 3.481,7.426 4.307,7.426 5.654,7.426 6.669,7.131 7.35,6.54 8.031,5.949 8.389,5.16 8.423,4.174 L 6.255,4.079 C 6.162,4.631 5.963,5.027 5.658,5.27 5.353,5.511 4.895,5.632 4.284,5.632 3.655,5.632 3.161,5.502 2.806,5.244 2.575,5.077 2.461,4.855 2.461,4.577 2.461,4.323 2.568,4.105 2.783,3.926 3.057,3.695 3.721,3.457 4.775,3.207 5.83,2.959 6.61,2.701 7.115,2.435 7.621,2.169 8.017,1.805 8.302,1.344 8.588,0.882 8.73,0.312 8.73,-0.367 8.73,-0.982 8.56,-1.559 8.218,-2.096 7.876,-2.633 7.393,-3.031 6.768,-3.293 6.143,-3.554 5.363,-3.685 4.431,-3.685 c -1.358,0 -2.4,0.314 -3.127,0.942 C 0.576,-2.116 0.142,-1.201 0,0"
             style="fill:#100f0d;fill-opacity:1;fill-rule:nonzero;stroke:none"
             id="path188"
             inkscape:connector-curvature="0" /></g><g
           id="g190"
           transform="translate(378.3271,251.6758)"><path
             d="m 0,0 c -0.264,-0.088 -0.682,-0.193 -1.253,-0.315 -0.571,-0.122 -0.944,-0.242 -1.12,-0.359 -0.27,-0.19 -0.403,-0.432 -0.403,-0.725 0,-0.288 0.107,-0.538 0.322,-0.747 0.215,-0.21 0.488,-0.315 0.82,-0.315 0.371,0 0.726,0.122 1.062,0.366 0.25,0.186 0.413,0.412 0.491,0.682 C -0.027,-1.237 0,-0.903 0,-0.41 Z m -2.754,1.67 -1.868,0.337 c 0.21,0.752 0.571,1.308 1.084,1.67 0.513,0.361 1.274,0.542 2.285,0.542 0.918,0 1.602,-0.109 2.051,-0.326 C 1.247,3.676 1.563,3.399 1.746,3.065 1.93,2.73 2.021,2.116 2.021,1.224 L 1.999,-1.179 c 0,-0.684 0.033,-1.188 0.099,-1.512 0.066,-0.326 0.189,-0.673 0.37,-1.044 H 0.432 c -0.054,0.136 -0.12,0.339 -0.198,0.607 -0.035,0.122 -0.058,0.203 -0.074,0.242 -0.351,-0.342 -0.727,-0.598 -1.127,-0.769 -0.401,-0.17 -0.828,-0.256 -1.282,-0.256 -0.801,0 -1.432,0.217 -1.894,0.652 -0.461,0.434 -0.691,0.984 -0.691,1.648 0,0.439 0.105,0.831 0.314,1.175 0.21,0.344 0.504,0.608 0.883,0.791 0.378,0.183 0.924,0.343 1.637,0.48 0.962,0.181 1.628,0.349 2,0.506 L 0,1.546 C 0,1.94 -0.099,2.223 -0.293,2.392 -0.489,2.56 -0.857,2.644 -1.399,2.644 -1.766,2.644 -2.051,2.572 -2.256,2.428 -2.461,2.284 -2.628,2.031 -2.754,1.67"
             style="fill:#100f0d;fill-opacity:1;fill-rule:nonzero;stroke:none"
             id="path192"
             inkscape:connector-curvature="0" /></g><g
           id="g194"
           transform="translate(384.8311,256.6709)"><path
             d="M 0,0 1.011,2.189 H 3.317 L 1.304,0 Z m 2.666,-8.73 v 1.164 C 2.383,-7.981 2.011,-8.309 1.549,-8.547 1.088,-8.786 0.601,-8.906 0.088,-8.906 c -0.523,0 -0.991,0.115 -1.406,0.343 -0.415,0.23 -0.716,0.552 -0.902,0.967 -0.185,0.415 -0.277,0.99 -0.277,1.722 v 4.922 h 2.058 v -3.574 c 0,-1.094 0.038,-1.764 0.113,-2.011 0.076,-0.246 0.214,-0.442 0.414,-0.586 0.2,-0.144 0.454,-0.216 0.762,-0.216 0.351,0 0.667,0.097 0.944,0.289 0.279,0.194 0.469,0.433 0.572,0.718 0.102,0.286 0.154,0.985 0.154,2.099 v 3.281 H 4.577 V -8.73 Z"
             style="fill:#100f0d;fill-opacity:1;fill-rule:nonzero;stroke:none"
             id="path196"
             inkscape:connector-curvature="0" /></g><g
           id="g198"
           transform="translate(393.1797,251.998)"><path
             d="m 0,0 c 0,-0.83 0.115,-1.431 0.345,-1.802 0.332,-0.537 0.796,-0.805 1.391,-0.805 0.474,0 0.876,0.201 1.209,0.604 0.331,0.402 0.498,1.004 0.498,1.805 0,0.894 -0.162,1.537 -0.484,1.93 C 2.637,2.125 2.225,2.321 1.722,2.321 1.233,2.321 0.824,2.128 0.495,1.739 0.165,1.352 0,0.771 0,0 M 5.494,-4.058 H 3.582 v 1.143 C 3.265,-3.359 2.89,-3.69 2.458,-3.907 2.025,-4.125 1.59,-4.233 1.15,-4.233 c -0.893,0 -1.659,0.36 -2.296,1.08 -0.637,0.72 -0.956,1.724 -0.956,3.013 0,1.319 0.31,2.322 0.93,3.007 0.62,0.687 1.404,1.029 2.352,1.029 0.869,0 1.621,-0.361 2.256,-1.083 V 6.68 h 2.058 z"
             style="fill:#100f0d;fill-opacity:1;fill-rule:nonzero;stroke:none"
             id="path200"
             inkscape:connector-curvature="0" /></g><g
           id="g202"
           transform="translate(405.3232,252.4961)"><path
             d="M 0,0 C -0.015,0.596 -0.169,1.049 -0.462,1.358 -0.755,1.669 -1.111,1.823 -1.53,1.823 -1.98,1.823 -2.351,1.66 -2.644,1.333 -2.937,1.006 -3.081,0.562 -3.076,0 Z M -0.117,-2.08 1.934,-2.425 C 1.67,-3.177 1.254,-3.749 0.685,-4.142 0.116,-4.535 -0.596,-4.731 -1.45,-4.731 c -1.353,0 -2.354,0.441 -3.003,1.326 -0.513,0.707 -0.769,1.6 -0.769,2.679 0,1.289 0.336,2.299 1.01,3.03 0.674,0.729 1.526,1.094 2.557,1.094 1.157,0 2.07,-0.381 2.739,-1.146 0.669,-0.764 0.989,-1.935 0.96,-3.512 h -5.156 c 0.013,-0.61 0.179,-1.085 0.498,-1.425 0.316,-0.338 0.712,-0.508 1.185,-0.508 0.323,0 0.594,0.088 0.814,0.263 0.219,0.176 0.386,0.459 0.498,0.85"
             style="fill:#100f0d;fill-opacity:1;fill-rule:nonzero;stroke:none"
             id="path204"
             inkscape:connector-curvature="0" /></g></g></g></g></svg>